<svg width="18" height="18" viewBox="0 0 18 18" fill="none" xmlns="http://www.w3.org/2000/svg">
<path d="M13.1562 9.4375C13.1562 9.61155 13.0871 9.77847 12.964 9.90154C12.841 10.0246 12.674 10.0938 12.5 10.0938H5.5C5.32595 10.0938 5.15903 10.0246 5.03596 9.90154C4.91289 9.77847 4.84375 9.61155 4.84375 9.4375C4.84375 9.26345 4.91289 9.09653 5.03596 8.97346C5.15903 8.85039 5.32595 8.78125 5.5 8.78125H12.5C12.674 8.78125 12.841 8.85039 12.964 8.97346C13.0871 9.09653 13.1562 9.26345 13.1562 9.4375ZM14.6875 6.15625H3.3125C3.13845 6.15625 2.97153 6.22539 2.84846 6.34846C2.72539 6.47153 2.65625 6.63845 2.65625 6.8125C2.65625 6.98655 2.72539 7.15347 2.84846 7.27654C2.97153 7.39961 3.13845 7.46875 3.3125 7.46875H14.6875C14.8615 7.46875 15.0285 7.39961 15.1515 7.27654C15.2746 7.15347 15.3438 6.98655 15.3438 6.8125C15.3438 6.63845 15.2746 6.47153 15.1515 6.34846C15.0285 6.22539 14.8615 6.15625 14.6875 6.15625ZM10.3125 11.4062H7.6875C7.51345 11.4062 7.34653 11.4754 7.22346 11.5985C7.10039 11.7215 7.03125 11.8885 7.03125 12.0625C7.03125 12.2365 7.10039 12.4035 7.22346 12.5265C7.34653 12.6496 7.51345 12.7188 7.6875 12.7188H10.3125C10.4865 12.7188 10.6535 12.6496 10.7765 12.5265C10.8996 12.4035 10.9688 12.2365 10.9688 12.0625C10.9688 11.8885 10.8996 11.7215 10.7765 11.5985C10.6535 11.4754 10.4865 11.4062 10.3125 11.4062Z" fill="#8B8B8B"/>
</svg>
